<svg xmlns="http://www.w3.org/2000/svg" viewBox="0 0 200 200">
  <circle cx="100" cy="100" r="98" fill="#004EA2"/>
  <!-- KNOU 한국방송통신대학교 공식 엠블럼 -->
  <!-- 중앙 수직 기둥 -->
  <rect x="93" y="42" width="14" height="58" rx="3" fill="#fff"/>
  <!-- 상단 가로바 (안테나 수평) -->
  <rect x="72" y="42" width="56" height="10" rx="5" fill="#fff"/>
  <!-- 안테나 끝 둥근 점 좌 -->
  <circle cx="72" cy="47" r="7" fill="#fff"/>
  <!-- 안테나 끝 둥근 점 우 -->
  <circle cx="128" cy="47" r="7" fill="#fff"/>
  <!-- 좌측 날개 (방송 전파) -->
  <path d="M92 80 C88 82, 68 88, 52 96 C46 99, 44 104, 48 108 C52 112, 60 112, 66 108 C60 114, 58 118, 62 122 L80 114 L92 102 Z" fill="#fff"/>
  <!-- 우측 날개 (방송 전파) -->
  <path d="M108 80 C112 82, 132 88, 148 96 C154 99, 156 104, 152 108 C148 112, 140 112, 134 108 C140 114, 142 118, 138 122 L120 114 L108 102 Z" fill="#fff"/>
  <!-- 하단 베이스 (책/학교) -->
  <path d="M62 125 Q100 145, 138 125 Q140 130, 138 135 Q100 155, 62 135 Q60 130, 62 125Z" fill="#fff"/>
  <!-- 하단 베이스 하단선 -->
  <path d="M68 138 Q100 154, 132 138 Q134 142, 132 146 Q100 162, 68 146 Q66 142, 68 138Z" fill="#fff"/>
</svg>
